<svg version="1.0" xmlns="http://www.w3.org/2000/svg"
 width="298.125px" style="transform:scale(1.001,1);" height="530px" viewBox="0 0 180.000000 320.000000"
 preserveAspectRatio="xMidYMid meet">
<g transform="translate(0.000000,320.000000) scale(0.100000,-0.100000)"
fill="#000000" stroke="none">
<path d="M0 1605 l0 -1595 276 0 276 0 -3 83 c-2 45 3 154 10 242 12 139 11 185 -3 352
-9 105 -24 231 -33 280 -20 104 -20 150 2 233 17 67 26 267 14 313 -8 29 -31
57 -47 57 -22 0 -70 71 -82 120 -23 96 17 343 68 415 38 54 62 65 201 92 42 8
83 50 77 78 -2 11 -12 40 -21 64 -21 58 -26 255 -7 288 15 28 81 63 117 63 14
0 25 5 25 10 0 6 29 10 66 10 64 0 68 -2 105 -39 48 -48 69 -96 69 -158 -1
-65 -40 -206 -79 -282 -45 -90 -43 -102 29 -146 78 -48 102 -91 108 -199 3
-44 -1 -116 -8 -162 -14 -100 -9 -114 60 -149 53 -27 143 -112 167 -159 18
-34 12 -99 -17 -185 -10 -31 -21 -81 -25 -111 -10 -91 -51 -125 -97 -83 -17
15 -18 15 -18 -13 0 -38 -9 -51 -42 -59 -19 -5 -35 -1 -57 16 -21 15 -34 20
-41 13 -6 -6 -17 -46 -25 -90 -9 -43 -31 -137 -50 -209 -18 -71 -39 -155 -45
-185 -15 -73 -40 -318 -34 -334 3 -7 18 -20 34 -29 47 -28 111 -100 106 -119
-4 -17 18 -18 360 -18 l364 0 0 1595 0 1595 -900 0 -900 0 0 -1595z"/>
<path d="M800 45 c0 -8 5 -15 10 -15 6 0 10 7 10 15 0 8 -4 15 -10 15 -5 0 -10 -7 -10
-15z"/>
</g>
</svg>
